<mxfile host="app.diagrams.net" modified="2021-08-26T07:13:35.857Z" agent="5.0 (Windows NT 6.1) AppleWebKit/537.36 (KHTML, like Gecko) Chrome/92.0.4515.159 Safari/537.36" etag="hMWVsrW5Jmh8-k4EDXus" version="14.9.9" type="github">
  <diagram id="aLBhC9BD0_iLDUlXZwY2" name="Page-1">
    <mxGraphModel dx="1240" dy="643" grid="1" gridSize="10" guides="1" tooltips="1" connect="1" arrows="1" fold="1" page="1" pageScale="1" pageWidth="850" pageHeight="1100" math="0" shadow="0">
      <root>
        <mxCell id="0" />
        <mxCell id="1" parent="0" />
        <mxCell id="iGFWbTWFFla8e0KEa0cu-3" value="" style="html=1;verticalAlign=bottom;startArrow=circle;startFill=1;endArrow=open;startSize=6;endSize=8;strokeColor=#000000;" edge="1" parent="1">
          <mxGeometry width="80" relative="1" as="geometry">
            <mxPoint x="120" y="70" as="sourcePoint" />
            <mxPoint x="120" y="120" as="targetPoint" />
          </mxGeometry>
        </mxCell>
        <mxCell id="iGFWbTWFFla8e0KEa0cu-4" value="See Registration Option" style="ellipse;whiteSpace=wrap;html=1;strokeColor=#000000;" vertex="1" parent="1">
          <mxGeometry x="50" y="120" width="140" height="30" as="geometry" />
        </mxCell>
        <mxCell id="iGFWbTWFFla8e0KEa0cu-5" value="Swimlane Diagram for Registration &amp;amp; Login" style="text;html=1;align=center;verticalAlign=middle;resizable=0;points=[];autosize=1;strokeColor=none;" vertex="1" parent="1">
          <mxGeometry x="40" y="10" width="240" height="20" as="geometry" />
        </mxCell>
        <mxCell id="iGFWbTWFFla8e0KEa0cu-6" value="&lt;b&gt;USER&lt;/b&gt;" style="text;html=1;align=center;verticalAlign=middle;resizable=0;points=[];autosize=1;strokeColor=none;" vertex="1" parent="1">
          <mxGeometry x="110" y="40" width="50" height="20" as="geometry" />
        </mxCell>
        <mxCell id="iGFWbTWFFla8e0KEa0cu-7" value="" style="endArrow=classic;html=1;strokeColor=#000000;exitX=0.5;exitY=1;exitDx=0;exitDy=0;" edge="1" parent="1" source="iGFWbTWFFla8e0KEa0cu-4">
          <mxGeometry width="50" height="50" relative="1" as="geometry">
            <mxPoint x="440" y="260" as="sourcePoint" />
            <mxPoint x="120" y="180" as="targetPoint" />
          </mxGeometry>
        </mxCell>
        <mxCell id="iGFWbTWFFla8e0KEa0cu-8" value="Click on That" style="ellipse;whiteSpace=wrap;html=1;strokeColor=#000000;" vertex="1" parent="1">
          <mxGeometry x="60" y="180" width="120" height="20" as="geometry" />
        </mxCell>
        <mxCell id="iGFWbTWFFla8e0KEa0cu-9" value="" style="endArrow=classic;html=1;strokeColor=#000000;" edge="1" parent="1">
          <mxGeometry width="50" height="50" relative="1" as="geometry">
            <mxPoint x="180" y="190" as="sourcePoint" />
            <mxPoint x="640" y="190" as="targetPoint" />
          </mxGeometry>
        </mxCell>
        <mxCell id="iGFWbTWFFla8e0KEa0cu-10" value="Show Enter Registration Info" style="ellipse;whiteSpace=wrap;html=1;strokeColor=#000000;" vertex="1" parent="1">
          <mxGeometry x="640" y="175" width="160" height="30" as="geometry" />
        </mxCell>
        <mxCell id="iGFWbTWFFla8e0KEa0cu-11" value="&lt;b&gt;SYSTEM&lt;/b&gt;" style="text;html=1;align=center;verticalAlign=middle;resizable=0;points=[];autosize=1;strokeColor=none;" vertex="1" parent="1">
          <mxGeometry x="630" y="40" width="60" height="20" as="geometry" />
        </mxCell>
        <mxCell id="iGFWbTWFFla8e0KEa0cu-12" value="" style="endArrow=classic;html=1;strokeColor=#000000;exitX=0.5;exitY=1;exitDx=0;exitDy=0;" edge="1" parent="1" source="iGFWbTWFFla8e0KEa0cu-10">
          <mxGeometry width="50" height="50" relative="1" as="geometry">
            <mxPoint x="440" y="250" as="sourcePoint" />
            <mxPoint x="480" y="240" as="targetPoint" />
            <Array as="points">
              <mxPoint x="720" y="240" />
            </Array>
          </mxGeometry>
        </mxCell>
        <mxCell id="iGFWbTWFFla8e0KEa0cu-13" value="Insert Info" style="ellipse;whiteSpace=wrap;html=1;strokeColor=#000000;" vertex="1" parent="1">
          <mxGeometry x="360" y="230" width="120" height="20" as="geometry" />
        </mxCell>
        <mxCell id="iGFWbTWFFla8e0KEa0cu-14" value="" style="endArrow=classic;html=1;strokeColor=#000000;exitX=0;exitY=0.5;exitDx=0;exitDy=0;" edge="1" parent="1" source="iGFWbTWFFla8e0KEa0cu-13">
          <mxGeometry width="50" height="50" relative="1" as="geometry">
            <mxPoint x="440" y="370" as="sourcePoint" />
            <mxPoint x="280" y="240" as="targetPoint" />
          </mxGeometry>
        </mxCell>
        <mxCell id="iGFWbTWFFla8e0KEa0cu-16" value="" style="shape=line;html=1;strokeWidth=6;rotation=-90;" vertex="1" parent="1">
          <mxGeometry x="205" y="305" width="150" height="10" as="geometry" />
        </mxCell>
        <mxCell id="iGFWbTWFFla8e0KEa0cu-18" value="" style="shape=line;html=1;strokeWidth=6;rotation=-90;" vertex="1" parent="1">
          <mxGeometry x="90.75" y="302.75" width="154.5" height="10" as="geometry" />
        </mxCell>
        <mxCell id="iGFWbTWFFla8e0KEa0cu-19" value="Name" style="ellipse;whiteSpace=wrap;html=1;strokeColor=#000000;" vertex="1" parent="1">
          <mxGeometry x="200" y="230" width="50" height="20" as="geometry" />
        </mxCell>
        <mxCell id="iGFWbTWFFla8e0KEa0cu-20" value="" style="endArrow=classic;html=1;strokeColor=#000000;entryX=1;entryY=0.5;entryDx=0;entryDy=0;" edge="1" parent="1" target="iGFWbTWFFla8e0KEa0cu-19">
          <mxGeometry width="50" height="50" relative="1" as="geometry">
            <mxPoint x="278" y="240" as="sourcePoint" />
            <mxPoint x="243" y="247" as="targetPoint" />
          </mxGeometry>
        </mxCell>
        <mxCell id="iGFWbTWFFla8e0KEa0cu-21" value="" style="endArrow=classic;html=1;strokeColor=#000000;entryX=1;entryY=0.5;entryDx=0;entryDy=0;" edge="1" parent="1">
          <mxGeometry width="50" height="50" relative="1" as="geometry">
            <mxPoint x="198.99999999999977" y="239.41" as="sourcePoint" />
            <mxPoint x="171" y="239.41" as="targetPoint" />
          </mxGeometry>
        </mxCell>
        <mxCell id="iGFWbTWFFla8e0KEa0cu-22" value="Email" style="ellipse;whiteSpace=wrap;html=1;strokeColor=#000000;" vertex="1" parent="1">
          <mxGeometry x="200" y="260" width="50" height="20" as="geometry" />
        </mxCell>
        <mxCell id="iGFWbTWFFla8e0KEa0cu-23" value="Phone" style="ellipse;whiteSpace=wrap;html=1;strokeColor=#000000;" vertex="1" parent="1">
          <mxGeometry x="200" y="290" width="50" height="20" as="geometry" />
        </mxCell>
        <mxCell id="iGFWbTWFFla8e0KEa0cu-24" value="Address" style="ellipse;whiteSpace=wrap;html=1;strokeColor=#000000;" vertex="1" parent="1">
          <mxGeometry x="200" y="330" width="50" height="20" as="geometry" />
        </mxCell>
        <mxCell id="iGFWbTWFFla8e0KEa0cu-25" value="Password" style="ellipse;whiteSpace=wrap;html=1;strokeColor=#000000;" vertex="1" parent="1">
          <mxGeometry x="200" y="370" width="50" height="20" as="geometry" />
        </mxCell>
        <mxCell id="iGFWbTWFFla8e0KEa0cu-26" value="" style="endArrow=classic;html=1;strokeColor=#000000;entryX=1;entryY=0.5;entryDx=0;entryDy=0;" edge="1" parent="1">
          <mxGeometry width="50" height="50" relative="1" as="geometry">
            <mxPoint x="277.9999999999998" y="269.41" as="sourcePoint" />
            <mxPoint x="250" y="269.41" as="targetPoint" />
          </mxGeometry>
        </mxCell>
        <mxCell id="iGFWbTWFFla8e0KEa0cu-27" value="" style="endArrow=classic;html=1;strokeColor=#000000;entryX=1;entryY=0.5;entryDx=0;entryDy=0;" edge="1" parent="1">
          <mxGeometry width="50" height="50" relative="1" as="geometry">
            <mxPoint x="277.9999999999998" y="299.41" as="sourcePoint" />
            <mxPoint x="250" y="299.41" as="targetPoint" />
          </mxGeometry>
        </mxCell>
        <mxCell id="iGFWbTWFFla8e0KEa0cu-28" value="" style="endArrow=classic;html=1;strokeColor=#000000;entryX=1;entryY=0.5;entryDx=0;entryDy=0;" edge="1" parent="1">
          <mxGeometry width="50" height="50" relative="1" as="geometry">
            <mxPoint x="279.9999999999998" y="339.40999999999997" as="sourcePoint" />
            <mxPoint x="252" y="339.40999999999997" as="targetPoint" />
          </mxGeometry>
        </mxCell>
        <mxCell id="iGFWbTWFFla8e0KEa0cu-29" value="" style="endArrow=classic;html=1;strokeColor=#000000;entryX=1;entryY=0.5;entryDx=0;entryDy=0;" edge="1" parent="1">
          <mxGeometry width="50" height="50" relative="1" as="geometry">
            <mxPoint x="277.9999999999998" y="379.40999999999997" as="sourcePoint" />
            <mxPoint x="250" y="379.40999999999997" as="targetPoint" />
          </mxGeometry>
        </mxCell>
        <mxCell id="iGFWbTWFFla8e0KEa0cu-30" value="" style="endArrow=classic;html=1;strokeColor=#000000;entryX=1;entryY=0.5;entryDx=0;entryDy=0;" edge="1" parent="1">
          <mxGeometry width="50" height="50" relative="1" as="geometry">
            <mxPoint x="199.99999999999977" y="269.41" as="sourcePoint" />
            <mxPoint x="172" y="269.41" as="targetPoint" />
          </mxGeometry>
        </mxCell>
        <mxCell id="iGFWbTWFFla8e0KEa0cu-31" value="" style="endArrow=classic;html=1;strokeColor=#000000;entryX=1;entryY=0.5;entryDx=0;entryDy=0;" edge="1" parent="1">
          <mxGeometry width="50" height="50" relative="1" as="geometry">
            <mxPoint x="199.99999999999977" y="299.41" as="sourcePoint" />
            <mxPoint x="172" y="299.41" as="targetPoint" />
          </mxGeometry>
        </mxCell>
        <mxCell id="iGFWbTWFFla8e0KEa0cu-32" value="" style="endArrow=classic;html=1;strokeColor=#000000;entryX=1;entryY=0.5;entryDx=0;entryDy=0;" edge="1" parent="1">
          <mxGeometry width="50" height="50" relative="1" as="geometry">
            <mxPoint x="199.99999999999977" y="339.41" as="sourcePoint" />
            <mxPoint x="172" y="339.41" as="targetPoint" />
          </mxGeometry>
        </mxCell>
        <mxCell id="iGFWbTWFFla8e0KEa0cu-33" value="" style="endArrow=classic;html=1;strokeColor=#000000;entryX=1;entryY=0.5;entryDx=0;entryDy=0;" edge="1" parent="1">
          <mxGeometry width="50" height="50" relative="1" as="geometry">
            <mxPoint x="199.99999999999977" y="379.40999999999997" as="sourcePoint" />
            <mxPoint x="172" y="379.40999999999997" as="targetPoint" />
          </mxGeometry>
        </mxCell>
        <mxCell id="iGFWbTWFFla8e0KEa0cu-34" value="" style="endArrow=classic;html=1;strokeColor=#000000;entryX=1;entryY=0.5;entryDx=0;entryDy=0;" edge="1" parent="1">
          <mxGeometry width="50" height="50" relative="1" as="geometry">
            <mxPoint x="167.99999999999977" y="299.40999999999997" as="sourcePoint" />
            <mxPoint x="140" y="299.40999999999997" as="targetPoint" />
          </mxGeometry>
        </mxCell>
        <mxCell id="iGFWbTWFFla8e0KEa0cu-35" value="Enter Submit" style="ellipse;whiteSpace=wrap;html=1;strokeColor=#000000;" vertex="1" parent="1">
          <mxGeometry x="50" y="290" width="90" height="20" as="geometry" />
        </mxCell>
        <mxCell id="iGFWbTWFFla8e0KEa0cu-36" value="" style="endArrow=classic;html=1;strokeColor=#000000;exitX=0.5;exitY=1;exitDx=0;exitDy=0;" edge="1" parent="1" source="iGFWbTWFFla8e0KEa0cu-35">
          <mxGeometry width="50" height="50" relative="1" as="geometry">
            <mxPoint x="440" y="370" as="sourcePoint" />
            <mxPoint x="640" y="400" as="targetPoint" />
            <Array as="points">
              <mxPoint x="95" y="400" />
            </Array>
          </mxGeometry>
        </mxCell>
        <mxCell id="iGFWbTWFFla8e0KEa0cu-37" value="Show Massage Registration Successful" style="ellipse;whiteSpace=wrap;html=1;strokeColor=#000000;" vertex="1" parent="1">
          <mxGeometry x="640" y="370" width="180" height="60" as="geometry" />
        </mxCell>
        <mxCell id="iGFWbTWFFla8e0KEa0cu-38" value="" style="endArrow=classic;html=1;strokeColor=#000000;exitX=0.452;exitY=0.997;exitDx=0;exitDy=0;exitPerimeter=0;" edge="1" parent="1" source="iGFWbTWFFla8e0KEa0cu-37">
          <mxGeometry width="50" height="50" relative="1" as="geometry">
            <mxPoint x="440" y="480" as="sourcePoint" />
            <mxPoint x="480" y="440" as="targetPoint" />
            <Array as="points">
              <mxPoint x="721" y="440" />
            </Array>
          </mxGeometry>
        </mxCell>
        <mxCell id="iGFWbTWFFla8e0KEa0cu-39" value="See Login Option" style="ellipse;whiteSpace=wrap;html=1;strokeColor=#000000;" vertex="1" parent="1">
          <mxGeometry x="365" y="430" width="120" height="20" as="geometry" />
        </mxCell>
        <mxCell id="iGFWbTWFFla8e0KEa0cu-40" value="" style="endArrow=classic;html=1;strokeColor=#000000;entryX=1;entryY=0.5;entryDx=0;entryDy=0;" edge="1" parent="1">
          <mxGeometry width="50" height="50" relative="1" as="geometry">
            <mxPoint x="364.9999999999998" y="439.40999999999997" as="sourcePoint" />
            <mxPoint x="337" y="439.40999999999997" as="targetPoint" />
          </mxGeometry>
        </mxCell>
        <mxCell id="iGFWbTWFFla8e0KEa0cu-41" value="Click at Login" style="ellipse;whiteSpace=wrap;html=1;strokeColor=#000000;" vertex="1" parent="1">
          <mxGeometry x="260" y="430" width="80" height="20" as="geometry" />
        </mxCell>
        <mxCell id="iGFWbTWFFla8e0KEa0cu-42" value="" style="endArrow=classic;html=1;strokeColor=#000000;exitX=0.5;exitY=1;exitDx=0;exitDy=0;" edge="1" parent="1" source="iGFWbTWFFla8e0KEa0cu-41">
          <mxGeometry width="50" height="50" relative="1" as="geometry">
            <mxPoint x="440" y="600" as="sourcePoint" />
            <mxPoint x="640" y="480" as="targetPoint" />
            <Array as="points">
              <mxPoint x="300" y="480" />
            </Array>
          </mxGeometry>
        </mxCell>
        <mxCell id="iGFWbTWFFla8e0KEa0cu-43" value="Show Enter Information" style="ellipse;whiteSpace=wrap;html=1;strokeColor=#000000;" vertex="1" parent="1">
          <mxGeometry x="640" y="467" width="110" height="30" as="geometry" />
        </mxCell>
        <mxCell id="iGFWbTWFFla8e0KEa0cu-44" value="" style="endArrow=classic;html=1;strokeColor=#000000;exitX=0.5;exitY=1;exitDx=0;exitDy=0;entryX=1;entryY=0.5;entryDx=0;entryDy=0;" edge="1" parent="1" source="iGFWbTWFFla8e0KEa0cu-43" target="iGFWbTWFFla8e0KEa0cu-45">
          <mxGeometry width="50" height="50" relative="1" as="geometry">
            <mxPoint x="440" y="480" as="sourcePoint" />
            <mxPoint x="480" y="520" as="targetPoint" />
            <Array as="points">
              <mxPoint x="695" y="550" />
            </Array>
          </mxGeometry>
        </mxCell>
        <mxCell id="iGFWbTWFFla8e0KEa0cu-45" value="Insert Info" style="ellipse;whiteSpace=wrap;html=1;strokeColor=#000000;" vertex="1" parent="1">
          <mxGeometry x="360" y="540" width="120" height="20" as="geometry" />
        </mxCell>
        <mxCell id="iGFWbTWFFla8e0KEa0cu-46" value="" style="endArrow=classic;html=1;strokeColor=#000000;entryX=1;entryY=0.5;entryDx=0;entryDy=0;" edge="1" parent="1">
          <mxGeometry width="50" height="50" relative="1" as="geometry">
            <mxPoint x="359.9999999999998" y="550" as="sourcePoint" />
            <mxPoint x="332" y="550" as="targetPoint" />
          </mxGeometry>
        </mxCell>
        <mxCell id="iGFWbTWFFla8e0KEa0cu-47" value="" style="shape=line;html=1;strokeWidth=6;rotation=-90;" vertex="1" parent="1">
          <mxGeometry x="298.81" y="550" width="56.19" height="10" as="geometry" />
        </mxCell>
        <mxCell id="iGFWbTWFFla8e0KEa0cu-48" value="" style="endArrow=classic;html=1;strokeColor=#000000;entryX=1;entryY=0.5;entryDx=0;entryDy=0;" edge="1" parent="1">
          <mxGeometry width="50" height="50" relative="1" as="geometry">
            <mxPoint x="326.8099999999997" y="539.41" as="sourcePoint" />
            <mxPoint x="298.80999999999995" y="539.41" as="targetPoint" />
          </mxGeometry>
        </mxCell>
        <mxCell id="iGFWbTWFFla8e0KEa0cu-49" value="" style="endArrow=classic;html=1;strokeColor=#000000;entryX=1;entryY=0.5;entryDx=0;entryDy=0;" edge="1" parent="1">
          <mxGeometry width="50" height="50" relative="1" as="geometry">
            <mxPoint x="326.8099999999997" y="569.41" as="sourcePoint" />
            <mxPoint x="298.80999999999995" y="569.41" as="targetPoint" />
          </mxGeometry>
        </mxCell>
        <mxCell id="iGFWbTWFFla8e0KEa0cu-50" value="Email" style="ellipse;whiteSpace=wrap;html=1;strokeColor=#000000;" vertex="1" parent="1">
          <mxGeometry x="240.21" y="530" width="60.41" height="20" as="geometry" />
        </mxCell>
        <mxCell id="iGFWbTWFFla8e0KEa0cu-51" value="Password" style="ellipse;whiteSpace=wrap;html=1;strokeColor=#000000;" vertex="1" parent="1">
          <mxGeometry x="240.41" y="560" width="60" height="20" as="geometry" />
        </mxCell>
        <mxCell id="iGFWbTWFFla8e0KEa0cu-52" value="" style="endArrow=classic;html=1;strokeColor=#000000;entryX=1;entryY=0.5;entryDx=0;entryDy=0;" edge="1" parent="1">
          <mxGeometry width="50" height="50" relative="1" as="geometry">
            <mxPoint x="238.99999999999977" y="539.41" as="sourcePoint" />
            <mxPoint x="211" y="539.41" as="targetPoint" />
          </mxGeometry>
        </mxCell>
        <mxCell id="iGFWbTWFFla8e0KEa0cu-53" value="" style="endArrow=classic;html=1;strokeColor=#000000;entryX=1;entryY=0.5;entryDx=0;entryDy=0;" edge="1" parent="1">
          <mxGeometry width="50" height="50" relative="1" as="geometry">
            <mxPoint x="240.20999999999978" y="569.41" as="sourcePoint" />
            <mxPoint x="212.21" y="569.41" as="targetPoint" />
          </mxGeometry>
        </mxCell>
        <mxCell id="iGFWbTWFFla8e0KEa0cu-54" value="" style="shape=line;html=1;strokeWidth=6;rotation=-90;" vertex="1" parent="1">
          <mxGeometry x="180.00000000000003" y="550" width="56.19" height="10" as="geometry" />
        </mxCell>
        <mxCell id="iGFWbTWFFla8e0KEa0cu-55" value="" style="endArrow=classic;html=1;strokeColor=#000000;entryX=1;entryY=0.5;entryDx=0;entryDy=0;" edge="1" parent="1">
          <mxGeometry width="50" height="50" relative="1" as="geometry">
            <mxPoint x="204.99999999999977" y="549" as="sourcePoint" />
            <mxPoint x="177" y="549" as="targetPoint" />
          </mxGeometry>
        </mxCell>
        <mxCell id="iGFWbTWFFla8e0KEa0cu-56" value="Enter Submit" style="ellipse;whiteSpace=wrap;html=1;strokeColor=#000000;" vertex="1" parent="1">
          <mxGeometry x="90.75" y="540" width="90" height="20" as="geometry" />
        </mxCell>
        <mxCell id="iGFWbTWFFla8e0KEa0cu-57" value="" style="endArrow=classic;html=1;strokeColor=#000000;" edge="1" parent="1">
          <mxGeometry width="50" height="50" relative="1" as="geometry">
            <mxPoint x="136" y="560" as="sourcePoint" />
            <mxPoint x="640" y="600" as="targetPoint" />
            <Array as="points">
              <mxPoint x="136" y="600" />
            </Array>
          </mxGeometry>
        </mxCell>
        <mxCell id="iGFWbTWFFla8e0KEa0cu-58" value="Is Valid" style="rhombus;whiteSpace=wrap;html=1;strokeColor=#000000;" vertex="1" parent="1">
          <mxGeometry x="640" y="580" width="50" height="40" as="geometry" />
        </mxCell>
        <mxCell id="iGFWbTWFFla8e0KEa0cu-59" value="" style="endArrow=classic;html=1;strokeColor=#000000;exitX=0.5;exitY=1;exitDx=0;exitDy=0;" edge="1" parent="1" source="iGFWbTWFFla8e0KEa0cu-58">
          <mxGeometry width="50" height="50" relative="1" as="geometry">
            <mxPoint x="440" y="720" as="sourcePoint" />
            <mxPoint x="665" y="640" as="targetPoint" />
          </mxGeometry>
        </mxCell>
        <mxCell id="iGFWbTWFFla8e0KEa0cu-60" value="Show Login Failed Message" style="ellipse;whiteSpace=wrap;html=1;strokeColor=#000000;" vertex="1" parent="1">
          <mxGeometry x="610" y="640" width="110" height="40" as="geometry" />
        </mxCell>
        <mxCell id="iGFWbTWFFla8e0KEa0cu-61" value="" style="endArrow=classic;html=1;strokeColor=#000000;exitX=0;exitY=0.5;exitDx=0;exitDy=0;entryX=0.374;entryY=-0.038;entryDx=0;entryDy=0;entryPerimeter=0;" edge="1" parent="1" source="iGFWbTWFFla8e0KEa0cu-60" target="iGFWbTWFFla8e0KEa0cu-45">
          <mxGeometry width="50" height="50" relative="1" as="geometry">
            <mxPoint x="440" y="600" as="sourcePoint" />
            <mxPoint x="490" y="550" as="targetPoint" />
            <Array as="points">
              <mxPoint x="80" y="660" />
              <mxPoint x="80" y="520" />
              <mxPoint x="405" y="520" />
            </Array>
          </mxGeometry>
        </mxCell>
        <mxCell id="iGFWbTWFFla8e0KEa0cu-62" value="NO" style="text;html=1;align=center;verticalAlign=middle;resizable=0;points=[];autosize=1;strokeColor=none;" vertex="1" parent="1">
          <mxGeometry x="605" y="620" width="30" height="20" as="geometry" />
        </mxCell>
        <mxCell id="iGFWbTWFFla8e0KEa0cu-63" value="" style="endArrow=classic;html=1;strokeColor=#000000;exitX=1;exitY=0.5;exitDx=0;exitDy=0;" edge="1" parent="1" source="iGFWbTWFFla8e0KEa0cu-58">
          <mxGeometry width="50" height="50" relative="1" as="geometry">
            <mxPoint x="440" y="600" as="sourcePoint" />
            <mxPoint x="480" y="720" as="targetPoint" />
            <Array as="points">
              <mxPoint x="740" y="600" />
              <mxPoint x="740" y="720" />
            </Array>
          </mxGeometry>
        </mxCell>
        <mxCell id="iGFWbTWFFla8e0KEa0cu-64" value="Go To Dashboard" style="ellipse;whiteSpace=wrap;html=1;strokeColor=#000000;" vertex="1" parent="1">
          <mxGeometry x="360" y="710" width="120" height="20" as="geometry" />
        </mxCell>
        <mxCell id="iGFWbTWFFla8e0KEa0cu-65" value="" style="endArrow=classic;html=1;strokeColor=#000000;exitX=0.5;exitY=1;exitDx=0;exitDy=0;" edge="1" parent="1" source="iGFWbTWFFla8e0KEa0cu-64">
          <mxGeometry width="50" height="50" relative="1" as="geometry">
            <mxPoint x="440" y="600" as="sourcePoint" />
            <mxPoint x="420" y="760" as="targetPoint" />
          </mxGeometry>
        </mxCell>
        <mxCell id="iGFWbTWFFla8e0KEa0cu-66" value="" style="ellipse;html=1;shape=endState;fillColor=#000000;strokeColor=#ff0000;" vertex="1" parent="1">
          <mxGeometry x="405" y="760" width="30" height="30" as="geometry" />
        </mxCell>
        <mxCell id="iGFWbTWFFla8e0KEa0cu-67" value="" style="endArrow=none;html=1;strokeColor=#000000;" edge="1" parent="1">
          <mxGeometry width="50" height="50" relative="1" as="geometry">
            <mxPoint x="560" y="811.6666666666666" as="sourcePoint" />
            <mxPoint x="560" y="40" as="targetPoint" />
          </mxGeometry>
        </mxCell>
      </root>
    </mxGraphModel>
  </diagram>
</mxfile>
